<svg width="43" height="40" viewBox="0 0 43 40" fill="none" xmlns="http://www.w3.org/2000/svg">
<g clip-path="url(#clip0_60_116)">
<path d="M32.5669 0.522352C32.6895 0.406579 32.8351 0.314725 32.9954 0.252053C33.1556 0.18938 33.3275 0.15712 33.501 0.15712C33.6745 0.15712 33.8464 0.18938 34.0066 0.252053C34.1669 0.314725 34.3125 0.406579 34.4351 0.522352L42.3509 7.98147C42.4737 8.09695 42.5712 8.23413 42.6377 8.38517C42.7042 8.5362 42.7384 8.69812 42.7384 8.86164C42.7384 9.02516 42.7042 9.18708 42.6377 9.33811C42.5712 9.48915 42.4737 9.62634 42.3509 9.74182L15.9649 34.6055C15.8383 34.724 15.6875 34.817 15.5216 34.879L2.32861 39.8518C2.08886 39.9422 1.82621 39.9643 1.57323 39.9154C1.32025 39.8665 1.08807 39.7488 0.905457 39.5767C0.722849 39.4046 0.597849 39.1858 0.545955 38.9474C0.49406 38.709 0.517553 38.4616 0.613521 38.2356L5.89072 25.8038C5.95649 25.6475 6.05523 25.5054 6.18096 25.3861L32.5669 0.522352ZM30.0893 6.37527L36.1396 12.0765L39.5513 8.86164L33.501 3.16039L30.0893 6.37527ZM34.2741 13.8344L28.2238 8.13313L11.0729 24.2945V25.0231H12.3922C12.7421 25.0231 13.0777 25.154 13.3251 25.3872C13.5725 25.6203 13.7115 25.9365 13.7115 26.2662V27.5094H15.0308C15.3807 27.5094 15.7163 27.6404 15.9637 27.8735C16.2111 28.1067 16.3501 28.4229 16.3501 28.7526V29.9958H17.1232L34.2741 13.8344ZM8.51876 26.7014L8.23907 26.9649L4.20729 36.4653L14.2894 32.6662L14.5691 32.4026C14.3174 32.314 14.1004 32.1551 13.9472 31.9472C13.7939 31.7392 13.7117 31.4921 13.7115 31.239V29.9958H12.3922C12.0423 29.9958 11.7067 29.8648 11.4593 29.6317C11.2119 29.3985 11.0729 29.0823 11.0729 28.7526V27.5094H9.75362C9.48496 27.5092 9.22276 27.4318 9.00209 27.2874C8.78142 27.143 8.61279 26.9385 8.51876 26.7014Z" fill="#3CB2ED"/>
</g>
<defs>
<clipPath id="clip0_60_116">
<rect width="42.2176" height="39.7819" fill="white" transform="translate(0.518311 0.159744)"/>
</clipPath>
</defs>
</svg>
