<svg width="102" height="102" viewBox="0 0 102 102" fill="none" xmlns="http://www.w3.org/2000/svg">
<path d="M76.3482 101.442C83.0742 101.442 89.5248 98.7702 94.2808 94.0142C99.0368 89.2582 101.709 82.8076 101.709 76.0816C101.709 69.3556 99.0368 62.905 94.2808 58.149C89.5248 53.393 83.0742 50.7211 76.3482 50.7211C69.6222 50.7211 63.1716 53.393 58.4156 58.149C53.6596 62.905 50.9877 69.3556 50.9877 76.0816C50.9877 82.8076 53.6596 89.2582 58.4156 94.0142C63.1716 98.7702 69.6222 101.442 76.3482 101.442ZM79.9711 65.2128V72.4587H87.217C88.1779 72.4587 89.0994 72.8404 89.7788 73.5198C90.4582 74.1992 90.8399 75.1207 90.8399 76.0816C90.8399 77.0424 90.4582 77.964 89.7788 78.6434C89.0994 79.3228 88.1779 79.7045 87.217 79.7045H79.9711V86.9504C79.9711 87.9113 79.5894 88.8328 78.91 89.5122C78.2306 90.1916 77.3091 90.5733 76.3482 90.5733C75.3873 90.5733 74.4658 90.1916 73.7864 89.5122C73.107 88.8328 72.7253 87.9113 72.7253 86.9504V79.7045H65.4794C64.5185 79.7045 63.597 79.3228 62.9176 78.6434C62.2382 77.964 61.8565 77.0424 61.8565 76.0816C61.8565 75.1207 62.2382 74.1992 62.9176 73.5198C63.597 72.8404 64.5185 72.4587 65.4794 72.4587H72.7253V65.2128C72.7253 64.2519 73.107 63.3304 73.7864 62.651C74.4658 61.9716 75.3873 61.5899 76.3482 61.5899C77.3091 61.5899 78.2306 61.9716 78.91 62.651C79.5894 63.3304 79.9711 64.2519 79.9711 65.2128ZM65.4794 21.7376C65.4794 27.5028 63.1892 33.0318 59.1126 37.1084C55.036 41.185 49.507 43.4752 43.7418 43.4752C37.9766 43.4752 32.4476 41.185 28.371 37.1084C24.2944 33.0318 22.0042 27.5028 22.0042 21.7376C22.0042 15.9724 24.2944 10.4434 28.371 6.3668C32.4476 2.29021 37.9766 0 43.7418 0C49.507 0 55.036 2.29021 59.1126 6.3668C63.1892 10.4434 65.4794 15.9724 65.4794 21.7376ZM43.7418 36.2293C47.5852 36.2293 51.2713 34.7025 53.989 31.9848C56.7067 29.2671 58.2335 25.581 58.2335 21.7376C58.2335 17.8942 56.7067 14.2081 53.989 11.4904C51.2713 8.77267 47.5852 7.24587 43.7418 7.24587C39.8983 7.24587 36.2123 8.77267 33.4946 11.4904C30.7769 14.2081 29.2501 17.8942 29.2501 21.7376C29.2501 25.581 30.7769 29.2671 33.4946 31.9848C36.2123 34.7025 39.8983 36.2293 43.7418 36.2293Z" fill="#868686"/>
<path d="M45.5967 86.9504C44.7671 84.5969 44.2103 82.156 43.9374 79.6755H7.51247C7.51971 77.8931 8.62833 72.5311 13.541 67.6184C18.2653 62.8941 27.156 57.9669 43.7418 57.9669C45.6257 57.9669 47.413 58.0273 49.1037 58.1481C50.7413 55.6772 52.6977 53.4383 54.9294 51.4964C51.548 50.9892 47.8188 50.7307 43.7418 50.7211C7.51247 50.7211 0.266602 72.4587 0.266602 79.7045C0.266602 86.9504 7.51247 86.9504 7.51247 86.9504H45.5967Z" fill="#868686"/>
</svg>
