<svg width="35" height="33" viewBox="0 0 35 33" fill="none" xmlns="http://www.w3.org/2000/svg">
<path d="M10.6178 12.0927C10.9698 12.0927 11.3074 12.2085 11.5563 12.4147C11.8052 12.6208 11.945 12.9005 11.945 13.192V26.384C11.945 26.6756 11.8052 26.9552 11.5563 27.1614C11.3074 27.3675 10.9698 27.4834 10.6178 27.4834C10.2658 27.4834 9.92818 27.3675 9.67927 27.1614C9.43036 26.9552 9.29053 26.6756 9.29053 26.384V13.192C9.29053 12.9005 9.43036 12.6208 9.67927 12.4147C9.92818 12.2085 10.2658 12.0927 10.6178 12.0927ZM17.2541 12.0927C17.6061 12.0927 17.9437 12.2085 18.1926 12.4147C18.4415 12.6208 18.5813 12.9005 18.5813 13.192V26.384C18.5813 26.6756 18.4415 26.9552 18.1926 27.1614C17.9437 27.3675 17.6061 27.4834 17.2541 27.4834C16.9021 27.4834 16.5645 27.3675 16.3156 27.1614C16.0666 26.9552 15.9268 26.6756 15.9268 26.384V13.192C15.9268 12.9005 16.0666 12.6208 16.3156 12.4147C16.5645 12.2085 16.9021 12.0927 17.2541 12.0927ZM25.2176 13.192C25.2176 12.9005 25.0778 12.6208 24.8289 12.4147C24.58 12.2085 24.2424 12.0927 23.8904 12.0927C23.5383 12.0927 23.2008 12.2085 22.9518 12.4147C22.7029 12.6208 22.5631 12.9005 22.5631 13.192V26.384C22.5631 26.6756 22.7029 26.9552 22.9518 27.1614C23.2008 27.3675 23.5383 27.4834 23.8904 27.4834C24.2424 27.4834 24.58 27.3675 24.8289 27.1614C25.0778 26.9552 25.2176 26.6756 25.2176 26.384V13.192Z" fill="white"/>
<path d="M34.5087 6.59601C34.5087 7.17913 34.229 7.73837 33.7312 8.1507C33.2334 8.56303 32.5582 8.79467 31.8542 8.79467H30.5269V28.5827C30.5269 29.7489 29.9676 30.8674 28.9719 31.6921C27.9763 32.5167 26.6259 32.98 25.2179 32.98H9.2908C7.88276 32.98 6.53239 32.5167 5.53675 31.6921C4.54111 30.8674 3.98177 29.7489 3.98177 28.5827V8.79467H2.65451C1.95049 8.79467 1.27531 8.56303 0.777489 8.1507C0.279671 7.73837 0 7.17913 0 6.59601V4.39734C0 3.81421 0.279671 3.25497 0.777489 2.84264C1.27531 2.43031 1.95049 2.19867 2.65451 2.19867H11.9453C11.9453 1.61555 12.225 1.05631 12.7228 0.643975C13.2206 0.231645 13.8958 0 14.5998 0L19.9089 0C20.6129 0 21.2881 0.231645 21.7859 0.643975C22.2837 1.05631 22.5634 1.61555 22.5634 2.19867H31.8542C32.5582 2.19867 33.2334 2.43031 33.7312 2.84264C34.229 3.25497 34.5087 3.81421 34.5087 4.39734V6.59601ZM6.94952 8.79467L6.63629 8.9244V28.5827C6.63629 29.1658 6.91596 29.7251 7.41378 30.1374C7.91159 30.5497 8.58678 30.7814 9.2908 30.7814H25.2179C25.9219 30.7814 26.5971 30.5497 27.0949 30.1374C27.5927 29.7251 27.8724 29.1658 27.8724 28.5827V8.9244L27.5592 8.79467H6.94952ZM2.65451 6.59601H31.8542V4.39734H2.65451V6.59601Z" fill="white"/>
</svg>
